# xmcd
#
# Track frame offsets: 
#        150
#        18645
#        35492
#        56172
#        77705
#        93655
#        110307
#        126417
#        146225
#        162155
#        184670
#
# Disc length: 2672 seconds
#
# Revision: 2
# Processed by: cddbd v1.5.2PL0 Copyright (c) Steve Scherf et al.
# Submitted via: ExactAudioCopy v0.99pb5
#
DISCID=9a0a6e0b
DTITLE=Mark Selby - More Storms Comin'
DYEAR=2000
DGENRE=Blues
TTITLE0=Don't You Throw That Mojo On Me
TTITLE1=She's Like Mercury
TTITLE2=I'm The Lucky One
TTITLE3=You're Gonna Miss My Love
TTITLE4=Blind Since Birth
TTITLE5=What Am I Doin'
TTITLE6=Kink In The Chain
TTITLE7=Down By The Tracks
TTITLE8=Smoked
TTITLE9=Satisfied
TTITLE10=More Storms Comin'
EXTD=
EXTT0=
EXTT1=
EXTT2=
EXTT3=
EXTT4=
EXTT5=
EXTT6=
EXTT7=
EXTT8=
EXTT9=
EXTT10=
PLAYORDER=
